<svg version="1.1" id="Layer_1" xmlns="http://www.w3.org/2000/svg" xmlns:xlink="http://www.w3.org/1999/xlink" x="0px" y="0px"
	 width="100%" viewBox="0 0 326 276" enable-background="new 0 0 326 276" xml:space="preserve">
<path fill="#000000" opacity="1.000000" stroke="none" 
	d="
M225.000000,277.000000 
	C150.000015,277.000000 75.500023,277.000000 1.000030,277.000000 
	C1.000020,185.000031 1.000020,93.000061 1.000010,1.000067 
	C109.666618,1.000045 218.333237,1.000045 326.999878,1.000022 
	C326.999939,92.999939 326.999939,184.999878 326.999969,276.999908 
	C293.166656,277.000000 259.333344,277.000000 225.000000,277.000000 
M201.004105,118.052521 
	C200.717834,116.031746 200.431549,114.010971 199.976898,111.153961 
	C199.899216,110.021339 199.821548,108.888718 199.913406,106.937347 
	C200.557358,100.958862 201.201294,94.980370 202.151230,88.336670 
	C202.959671,86.062973 202.959671,86.062973 199.028137,85.207977 
	C198.369934,83.124268 197.711731,81.040558 196.673203,78.257935 
	C192.807999,77.788284 188.942780,77.318634 185.019852,76.015770 
	C184.558716,75.667320 184.112152,75.037193 183.634247,75.012459 
	C175.812378,74.607414 167.986542,74.278809 159.751663,73.199707 
	C148.499435,72.517448 137.247208,71.835197 125.235657,71.012634 
	C116.464706,70.395630 107.693764,69.778633 98.352791,69.020439 
	C97.960709,69.005432 97.568626,68.990425 96.825195,68.283562 
	C95.561218,68.234558 94.297241,68.185562 92.134270,68.015259 
	C86.447083,67.738976 80.759888,67.462700 74.431572,67.177002 
	C73.326736,68.416183 72.221909,69.655365 70.969765,71.847977 
	C70.937744,86.866470 70.905724,101.884956 70.101967,117.333969 
	C70.044846,131.484390 69.969139,145.634811 69.977516,159.785187 
	C69.978012,160.620239 70.655403,161.454910 70.933479,162.870590 
	C71.250351,163.283615 71.567223,163.696640 72.014908,164.554337 
	C72.014908,164.554337 72.176956,164.990311 71.990631,165.767807 
	C71.953934,167.742432 71.428078,169.862930 71.965889,171.666214 
	C74.200134,179.157562 76.755196,186.553223 79.031204,194.747803 
	C79.649498,196.846863 80.267799,198.945938 80.970863,201.845917 
	C81.714592,204.396667 82.124451,207.115463 83.299149,209.449295 
	C84.398605,211.633652 86.346397,213.274826 89.954414,211.026825 
	C93.984344,210.722763 98.014267,210.418701 102.965416,210.034393 
	C107.653152,209.718323 112.340881,209.402237 117.685013,209.016983 
	C118.120079,208.966125 118.555145,208.915268 119.891037,209.004181 
	C122.927200,208.938965 125.963364,208.873749 129.860550,208.977966 
	C136.907944,208.266907 143.955338,207.555847 151.924866,206.970032 
	C158.946594,206.586273 165.968323,206.202515 173.905899,205.970612 
	C181.600815,205.597977 189.295731,205.225342 197.820480,204.689972 
	C199.879807,204.461792 201.935211,204.186203 203.999252,204.014832 
	C208.990021,203.600433 213.984818,203.234695 219.909195,202.977859 
	C226.944962,202.609680 233.980713,202.241486 241.878983,201.987869 
	C244.446106,201.667587 247.651825,202.181595 249.425095,200.824219 
	C251.858383,198.961609 253.532867,195.819946 254.777939,192.904160 
	C255.072876,192.213470 252.364487,190.240326 250.732117,188.217178 
	C243.465073,184.714981 236.198044,181.212784 228.548447,177.162415 
	C220.388535,173.046844 212.228622,168.931259 204.046432,164.014877 
	C203.965073,162.413589 203.883713,160.812286 203.974808,158.323517 
	C203.665482,155.924942 203.356171,153.526382 202.321671,150.799301 
	C201.864685,143.916718 201.407700,137.034119 201.720810,129.722168 
	C201.503677,126.106232 201.286560,122.490288 201.004105,118.052521 
z"/>
<path fill="#D8DADF" opacity="1.000000" stroke="none" 
	d="
M199.743881,107.756096 
	C199.821548,108.888718 199.899216,110.021339 200.005768,111.969063 
	C199.717743,115.440376 199.400879,118.096588 199.053131,121.121414 
	C199.234177,122.627228 199.446075,123.764420 199.750275,125.314392 
	C199.924225,127.132553 200.005859,128.537933 199.812256,130.237549 
	C199.703857,139.732635 199.870712,148.933487 199.597473,158.182953 
	C196.276688,158.225967 193.395981,158.220337 190.090881,158.159393 
	C186.707672,157.820374 184.555008,158.708557 183.578339,162.059113 
	C178.777008,162.178909 174.436020,162.215042 169.826828,161.947479 
	C165.708405,161.095596 161.802231,160.788605 158.027878,159.913269 
	C155.568481,159.342865 153.300705,157.946198 151.121185,156.602600 
	C151.848694,154.184235 152.402115,152.082962 153.285828,149.937408 
	C154.113922,149.487915 154.611740,149.082687 155.474792,148.736694 
	C156.990143,148.570129 158.140228,148.344360 159.566620,148.055542 
	C160.479507,147.607361 161.116089,147.222229 162.026611,146.977356 
	C162.822205,147.415955 163.343872,147.714310 163.917877,148.027695 
	C163.970215,148.042740 163.952133,148.150162 164.009674,148.433350 
	C164.634445,149.162949 165.201660,149.609375 165.837341,150.027130 
	C165.905777,149.998474 166.050781,149.966888 166.148270,150.268036 
	C166.830597,151.289673 167.415436,152.010193 167.855530,152.552383 
	C170.102921,150.850861 172.020355,149.399139 174.271820,147.863373 
	C176.606064,146.109131 178.806122,144.612411 180.491943,142.669495 
	C181.040558,142.037186 180.246277,140.239685 180.097504,138.657867 
	C179.443283,137.555542 178.757767,136.770477 177.955475,135.777405 
	C177.626526,135.282410 177.344681,135.169815 176.704681,135.044098 
	C175.565292,134.528336 174.714417,134.200104 173.884155,133.481476 
	C172.313385,129.691406 170.721970,126.291733 169.038681,122.586197 
	C167.964676,121.205070 166.982529,120.129799 165.963913,118.863281 
	C165.927429,118.672035 165.876236,118.286003 165.942871,117.921173 
	C167.032104,116.022896 168.054718,114.489456 169.351562,113.076202 
	C170.414368,113.800629 171.202942,114.404861 172.122437,115.305084 
	C173.516113,117.047836 174.778900,118.494591 176.165771,120.277451 
	C177.481476,123.418373 178.673080,126.223198 179.887161,129.080963 
	C188.347198,124.194473 194.671265,117.382988 198.304489,107.967789 
	C198.977768,107.880493 199.360825,107.818291 199.743881,107.756096 
z"/>
<path fill="#D8DADF" opacity="1.000000" stroke="none" 
	d="
M185.077576,76.848984 
	C188.942780,77.318634 192.807999,77.788284 196.787628,79.008728 
	C197.186371,81.817848 197.470703,83.876160 197.564636,86.063103 
	C197.249420,86.611031 197.124588,87.030327 196.554108,87.536087 
	C192.404541,88.108200 188.700623,88.593849 184.586273,89.045456 
	C183.091858,89.151817 182.007904,89.292221 180.716797,89.413406 
	C180.214615,89.457054 180.003983,89.625511 179.906525,89.939194 
	C179.935318,89.978836 179.928589,89.881088 179.550568,89.876778 
	C174.886139,92.464912 170.427734,94.819466 166.381760,97.744530 
	C164.173141,99.341270 162.663132,101.904335 160.642532,104.142555 
	C160.161270,104.403687 159.980865,104.635841 159.942322,104.957733 
	C159.978867,104.965492 159.956360,104.894257 159.598358,104.892288 
	C157.505341,105.636528 155.770325,106.382744 153.996307,106.691422 
	C154.048370,104.500618 154.139420,102.747345 154.463867,100.716690 
	C157.838837,94.698318 155.111710,90.001839 151.393433,86.116028 
	C148.198395,82.777023 146.773911,79.459946 148.384705,75.022537 
	C150.843262,75.019485 152.919983,75.032318 155.381805,75.056030 
	C157.519592,75.302277 159.272293,75.537636 161.250702,75.813400 
	C161.476395,75.853813 161.933990,75.823814 162.385101,75.865219 
	C170.250000,76.220749 177.663788,76.534866 185.077576,76.848984 
z"/>
<path fill="#6677D6" opacity="1.000000" stroke="none" 
	d="
M71.117073,70.894547 
	C72.221909,69.655365 73.326736,68.416183 74.858063,67.418900 
	C75.481934,68.316055 75.679321,68.971313 75.642914,70.005936 
	C75.334656,92.252388 75.260208,114.119492 75.097305,136.449829 
	C75.056389,143.953812 75.103928,150.994553 75.109077,158.358246 
	C75.362892,159.236710 75.659088,159.792252 75.961517,160.710083 
	C75.992943,162.047546 76.018120,163.022720 75.986450,164.253403 
	C75.888275,164.678467 75.846954,164.848007 75.587723,165.015076 
	C75.369820,165.012634 74.934303,165.029449 74.607552,165.022507 
	C73.845207,165.003189 73.409607,164.990814 72.840012,164.778519 
	C72.484558,164.330246 72.210587,164.173935 71.884094,164.109665 
	C71.567223,163.696640 71.250351,163.283615 71.071205,162.098206 
	C71.362999,146.598907 71.517075,131.872009 71.768463,116.673218 
	C71.908974,102.163544 71.971367,88.125725 71.957001,74.087982 
	C71.955910,73.023216 71.409821,71.959015 71.117073,70.894547 
z"/>
<path fill="#7882E0" opacity="1.000000" stroke="none" 
	d="
M204.068710,164.815689 
	C212.228622,168.931259 220.388535,173.046844 228.518417,177.563263 
	C228.305130,178.243713 228.121872,178.523331 227.498871,178.841003 
	C222.365204,179.207825 217.671295,179.536621 212.574249,179.819794 
	C209.444778,179.726105 206.718460,179.678024 203.975128,179.315750 
	C203.411713,178.250397 203.015259,177.282547 202.294312,176.783569 
	C197.892014,173.736694 193.416031,170.796265 189.247757,167.550598 
	C192.114853,166.852005 194.698837,166.423157 197.618683,165.930481 
	C199.992615,165.516312 202.030655,165.166000 204.068710,164.815689 
z"/>
<path fill="#B68EDA" opacity="1.000000" stroke="none" 
	d="
M128.999527,208.808517 
	C125.963364,208.873749 122.927200,208.938965 119.427429,208.552765 
	C118.310493,205.080032 117.657166,202.058701 117.325592,199.027786 
	C118.401848,198.945679 119.156342,198.873154 120.235550,198.769409 
	C119.119873,198.001663 118.353836,197.474518 117.587807,196.947372 
	C117.678505,196.628387 117.769203,196.309402 117.859901,195.990417 
	C119.572777,195.990417 121.285645,195.990417 123.443832,195.994659 
	C127.922112,195.662216 131.955093,195.325500 136.433624,194.992416 
	C139.261627,195.003311 141.644043,195.010559 144.219604,195.254974 
	C145.272781,196.149750 146.132858,196.807343 147.710236,198.013397 
	C145.830154,198.013397 144.910156,198.013397 143.579651,198.013824 
	C135.774704,198.105820 130.495819,200.974457 128.999527,208.808517 
z"/>
<path fill="#ECA662" opacity="1.000000" stroke="none" 
	d="
M251.037613,188.857101 
	C252.364487,190.240326 255.072876,192.213470 254.777939,192.904160 
	C253.532867,195.819946 251.858383,198.961609 249.425095,200.824219 
	C247.651825,202.181595 244.446106,201.667587 241.149292,201.676910 
	C234.092316,200.462677 234.098526,200.463974 235.501373,193.763504 
	C235.544785,193.556091 235.158508,193.258698 235.179535,192.770065 
	C236.271561,192.028854 237.156616,191.520844 238.446320,190.939209 
	C242.913193,190.196091 246.975403,189.526596 251.037613,188.857101 
z"/>
<path fill="#EAA58F" opacity="1.000000" stroke="none" 
	d="
M234.972549,193.003250 
	C235.158508,193.258698 235.544785,193.556091 235.501373,193.763504 
	C234.098526,200.463974 234.092316,200.462677 240.718048,201.619629 
	C233.980713,202.241486 226.944962,202.609680 219.152679,202.690491 
	C212.333939,202.201202 214.118607,198.396957 215.248596,195.003540 
	C215.496414,195.000061 215.992035,194.991547 216.415237,194.998077 
	C220.546326,194.005783 224.254211,193.006958 228.340240,191.998032 
	C229.472290,191.962524 230.226196,191.937119 231.323181,191.974304 
	C232.768372,192.359024 233.870453,192.681137 234.972549,193.003250 
z"/>
<path fill="#E399A5" opacity="1.000000" stroke="none" 
	d="
M227.962097,192.008118 
	C224.254211,193.006958 220.546326,194.005783 216.315277,194.863403 
	C215.528336,194.817139 215.264557,194.912094 215.000778,195.007050 
	C214.118607,198.396957 212.333939,202.201202 218.687073,202.626221 
	C213.984818,203.234695 208.990021,203.600433 203.999252,204.014832 
	C201.935211,204.186203 199.879807,204.461792 197.419006,204.417099 
	C197.372742,203.029114 197.727936,201.914001 198.265564,200.783127 
	C198.448013,200.767365 198.814774,200.804199 199.052856,201.061096 
	C200.508469,200.985352 201.725983,200.652725 203.237366,200.246429 
	C203.679474,199.411438 203.827744,198.650101 204.086945,197.538666 
	C205.986328,196.557083 207.731201,195.660736 209.573654,195.357574 
	C212.194519,194.926300 213.337921,193.676575 213.447403,191.044189 
	C218.589401,191.355316 223.275757,191.681717 227.962097,192.008118 
z"/>
<path fill="#6677D6" opacity="1.000000" stroke="none" 
	d="
M80.886101,201.044998 
	C80.267799,198.945938 79.649498,196.846863 79.443390,194.256409 
	C79.894905,191.185654 79.934227,188.606293 80.295074,185.883408 
	C83.422249,185.201340 86.227913,184.662796 89.377335,184.099884 
	C90.179199,184.109879 90.637283,184.144257 91.067123,184.548553 
	C88.961128,189.695770 92.185822,193.177704 93.623680,197.165726 
	C90.532585,197.563019 87.809692,197.800797 84.775055,198.031784 
	C83.270905,199.031662 82.078506,200.038330 80.886101,201.044998 
z"/>
<path fill="#BD87D0" opacity="1.000000" stroke="none" 
	d="
M129.430038,208.893250 
	C130.495819,200.974457 135.774704,198.105820 143.762207,198.250595 
	C144.907791,199.048965 145.460312,199.610977 145.770660,200.359299 
	C144.871277,201.128555 144.214111,201.711517 143.556946,202.294495 
	C144.312592,202.695435 145.056442,203.408096 145.826157,203.437241 
	C147.900055,203.515701 149.984985,203.302689 152.003937,203.517120 
	C151.629135,204.834183 151.315933,205.839478 151.002731,206.844788 
	C143.955338,207.555847 136.907944,208.266907 129.430038,208.893250 
z"/>
<path fill="#7882E0" opacity="1.000000" stroke="none" 
	d="
M80.928482,201.445465 
	C82.078506,200.038330 83.270905,199.031662 85.085266,198.289383 
	C87.477127,198.695755 89.247307,198.834290 91.016861,198.980438 
	C94.999367,199.309372 98.981544,199.642090 102.594734,199.978912 
	C101.487846,200.000809 100.750084,200.017044 99.583740,200.025925 
	C91.403046,200.028824 91.403046,200.028824 92.341217,209.229492 
	C91.241905,209.862274 90.143730,210.496994 89.045563,211.131714 
	C86.346397,213.274826 84.398605,211.633652 83.299149,209.449295 
	C82.124451,207.115463 81.714592,204.396667 80.928482,201.445465 
z"/>
<path fill="#DB8649" opacity="1.000000" stroke="none" 
	d="
M250.884857,188.537140 
	C246.975403,189.526596 242.913193,190.196091 238.417709,190.576889 
	C235.207306,188.207001 232.607513,185.805252 229.599609,184.141235 
	C226.971252,182.687195 225.347748,181.584518 227.938629,178.802948 
	C228.121872,178.523331 228.305130,178.243713 228.709686,177.837341 
	C236.198044,181.212784 243.465073,184.714981 250.884857,188.537140 
z"/>
<path fill="#A3D0F0" opacity="1.000000" stroke="none" 
	d="
M199.828644,107.346725 
	C199.360825,107.818291 198.977768,107.880493 197.951462,107.924088 
	C195.209900,105.962517 193.111572,104.019539 191.057129,101.711731 
	C192.868073,95.652809 196.412598,91.505707 201.845245,89.001884 
	C201.201294,94.980370 200.557358,100.958862 199.828644,107.346725 
z"/>
<path fill="#73C3E8" opacity="1.000000" stroke="none" 
	d="
M201.998230,88.669281 
	C196.412598,91.505707 192.868073,95.652809 190.774414,101.821396 
	C189.913071,102.583115 189.378296,102.870338 188.509827,103.152298 
	C185.852066,103.042374 183.527985,102.937729 181.419083,102.600906 
	C186.756088,97.395691 191.877930,92.422661 196.999756,87.449631 
	C197.124588,87.030327 197.249420,86.611031 197.696762,86.293724 
	C198.402008,86.261368 198.784760,86.127014 199.167496,85.992661 
	C202.959671,86.062973 202.959671,86.062973 201.998230,88.669281 
z"/>
<path fill="#7882E0" opacity="1.000000" stroke="none" 
	d="
M79.973557,186.026947 
	C79.934227,188.606293 79.894905,191.185654 79.524048,193.874512 
	C76.755196,186.553223 74.200134,179.157562 71.965889,171.666214 
	C71.428078,169.862930 71.953934,167.742432 72.283081,165.378815 
	C72.575539,164.989822 72.974014,164.978439 72.974014,164.978439 
	C73.409607,164.990814 73.845207,165.003189 74.579346,165.378387 
	C76.576439,172.503128 78.274994,179.265045 79.973557,186.026947 
z"/>
<path fill="#9381DC" opacity="1.000000" stroke="none" 
	d="
M89.499985,211.079269 
	C90.143730,210.496994 91.241905,209.862274 92.341217,209.229492 
	C91.403046,200.028824 91.403046,200.028824 99.594696,200.421478 
	C100.704216,203.921143 101.374207,207.017883 102.044197,210.114639 
	C98.014267,210.418701 93.984344,210.722763 89.499985,211.079269 
z"/>
<path fill="#DB96BD" opacity="1.000000" stroke="none" 
	d="
M198.083130,200.798889 
	C197.727936,201.914001 197.372742,203.029114 197.004089,204.498474 
	C189.295731,205.225342 181.600815,205.597977 173.450043,205.513306 
	C173.026138,204.039719 173.058090,203.023422 173.524094,201.944382 
	C181.999817,201.520706 190.041473,201.159805 198.083130,200.798889 
z"/>
<path fill="#51B0E1" opacity="1.000000" stroke="none" 
	d="
M204.057571,164.415283 
	C202.030655,165.166000 199.992615,165.516312 197.367615,165.693008 
	C195.350922,165.149170 193.921143,164.778961 192.249146,164.183960 
	C191.263123,162.923203 190.519318,161.887192 189.841370,160.595978 
	C190.109909,159.632095 190.312592,158.923401 190.515289,158.214722 
	C193.395981,158.220337 196.276688,158.225967 199.920654,158.222443 
	C201.336655,158.205795 201.989395,158.198273 202.783234,158.414673 
	C203.217010,158.829391 203.509674,159.020203 203.802353,159.210999 
	C203.883713,160.812286 203.965073,162.413589 204.057571,164.415283 
z"/>
<path fill="#9E82DA" opacity="1.000000" stroke="none" 
	d="
M102.504807,210.074524 
	C101.374207,207.017883 100.704216,203.921143 100.023270,200.428833 
	C100.750084,200.017044 101.487846,200.000809 102.615692,199.996979 
	C103.005775,200.009399 103.046295,200.045502 103.196411,200.235962 
	C103.881134,200.298889 104.415741,200.171356 105.355644,200.032196 
	C106.842323,200.023788 107.923706,200.026993 109.003479,200.473694 
	C108.218323,205.877151 109.519798,208.965042 115.362053,208.170990 
	C115.866791,208.102402 116.470749,208.763840 117.028618,209.086166 
	C112.340881,209.402237 107.653152,209.718323 102.504807,210.074524 
z"/>
<path fill="#CE97CE" opacity="1.000000" stroke="none" 
	d="
M173.090027,202.007141 
	C173.058090,203.023422 173.026138,204.039719 172.992126,205.437378 
	C165.968323,206.202515 158.946594,206.586273 151.463806,206.907410 
	C151.315933,205.839478 151.629135,204.834183 152.453827,203.459534 
	C158.012894,202.688034 163.060486,202.285858 168.521011,201.905182 
	C170.319290,201.953491 171.704666,201.980316 173.090027,202.007141 
z"/>
<path fill="#CE97CE" opacity="1.000000" stroke="none" 
	d="
M154.996719,75.045151 
	C152.919983,75.032318 150.843262,75.019485 147.931961,74.993149 
	C140.050125,74.280548 133.002869,73.581459 125.960938,72.594101 
	C125.975845,71.921539 125.985405,71.537239 125.994972,71.152946 
	C137.247208,71.835197 148.499435,72.517448 159.560852,73.590363 
	C157.912262,74.335724 156.454498,74.690437 154.996719,75.045151 
z"/>
<path fill="#AD84D9" opacity="1.000000" stroke="none" 
	d="
M117.356812,209.051575 
	C116.470749,208.763840 115.866791,208.102402 115.362053,208.170990 
	C109.519798,208.965042 108.218323,205.877151 109.404381,200.449799 
	C112.205864,199.667404 114.604851,199.352386 117.003830,199.037384 
	C117.657166,202.058701 118.310493,205.080032 118.977020,208.482880 
	C118.555145,208.915268 118.120079,208.966125 117.356812,209.051575 
z"/>
<path fill="#CFCEDB" opacity="1.000000" stroke="none" 
	d="
M202.642136,158.190735 
	C201.989395,158.198273 201.336655,158.205795 200.360733,158.173828 
	C199.870712,148.933487 199.703857,139.732635 200.029236,130.248001 
	C200.521454,129.964203 200.953705,130.005798 200.937027,130.041901 
	C200.920349,130.078018 200.950714,130.151535 200.950714,130.151535 
	C201.407700,137.034119 201.864685,143.916718 202.686005,151.403076 
	C202.914276,154.068146 202.778214,156.129440 202.642136,158.190735 
z"/>
<path fill="#E399A5" opacity="1.000000" stroke="none" 
	d="
M155.381805,75.056030 
	C156.454498,74.690437 157.912262,74.335724 159.765823,73.957008 
	C167.986542,74.278809 175.812378,74.607414 183.634247,75.012459 
	C184.112152,75.037193 184.558716,75.667320 185.048706,76.432373 
	C177.663788,76.534866 170.250000,76.220749 162.297760,75.753769 
	C161.476852,75.443710 161.232086,75.501068 161.024994,75.772995 
	C159.272293,75.537636 157.519592,75.302277 155.381805,75.056030 
z"/>
<path fill="#B68EDA" opacity="1.000000" stroke="none" 
	d="
M125.615311,71.082794 
	C125.985405,71.537239 125.975845,71.921539 125.526398,72.620682 
	C123.047966,72.874367 121.009438,72.813202 118.837746,72.589722 
	C118.494469,72.230370 118.250854,72.092438 117.511314,72.021042 
	C110.998695,71.623512 104.948494,71.218529 98.905853,70.538231 
	C98.916550,69.895821 98.919685,69.528732 98.922813,69.161636 
	C107.693764,69.778633 116.464706,70.395630 125.615311,71.082794 
z"/>
<path fill="#89A1E7" opacity="1.000000" stroke="none" 
	d="
M98.637802,69.091034 
	C98.919685,69.528732 98.916550,69.895821 98.483002,70.571075 
	C96.344627,70.792038 94.636650,70.704849 92.786652,70.474243 
	C92.425079,70.158569 92.178261,70.045967 91.443207,70.003937 
	C85.947060,69.885429 80.911880,69.755997 75.876709,69.626572 
	C75.679321,68.971313 75.481934,68.316055 75.178619,67.423607 
	C80.759888,67.462700 86.447083,67.738976 92.860321,68.307678 
	C94.783096,68.725197 95.979820,68.850311 97.176544,68.975418 
	C97.568626,68.990425 97.960709,69.005432 98.637802,69.091034 
z"/>
<path fill="#D8DADF" opacity="1.000000" stroke="none" 
	d="
M71.671143,117.145096 
	C71.517075,131.872009 71.362999,146.598907 71.113373,161.807785 
	C70.655403,161.454910 69.978012,160.620239 69.977516,159.785187 
	C69.969139,145.634811 70.044846,131.484390 70.681564,117.197289 
	C71.261154,117.060608 71.671143,117.145096 71.671143,117.145096 
z"/>
<path fill="#A1BCE7" opacity="1.000000" stroke="none" 
	d="
M71.768463,116.673218 
	C71.671143,117.145096 71.261154,117.060608 71.067429,116.982025 
	C70.905724,101.884956 70.937744,86.866470 71.043419,71.371262 
	C71.409821,71.959015 71.955910,73.023216 71.957001,74.087982 
	C71.971367,88.125725 71.908974,102.163544 71.768463,116.673218 
z"/>
<path fill="#ECA662" opacity="1.000000" stroke="none" 
	d="
M199.084000,120.752800 
	C199.400879,118.096588 199.717743,115.440376 200.089935,112.387177 
	C200.431549,114.010971 200.717834,116.031746 201.002777,118.869995 
	C200.944778,120.501923 200.888077,121.316368 200.616730,122.061348 
	C200.402084,121.991882 199.960236,121.900383 199.828720,121.698494 
	C199.548904,121.202446 199.344498,120.954514 199.084000,120.752800 
z"/>
<path fill="#EAA58F" opacity="1.000000" stroke="none" 
	d="
M200.831390,122.130814 
	C200.888077,121.316368 200.944778,120.501923 201.035461,119.280914 
	C201.286560,122.490288 201.503677,126.106232 201.335754,129.936859 
	C200.950714,130.151535 200.920349,130.078018 200.941986,129.601318 
	C200.919556,126.793350 200.875473,124.462082 200.831390,122.130814 
z"/>
<path fill="#ECA662" opacity="1.000000" stroke="none" 
	d="
M199.097809,85.600327 
	C198.784760,86.127014 198.402008,86.261368 197.887146,86.165100 
	C197.470703,83.876160 197.186371,81.817848 196.977783,79.358192 
	C197.711731,81.040558 198.369934,83.124268 199.097809,85.600327 
z"/>
<path fill="#EAA58F" opacity="1.000000" stroke="none" 
	d="
M202.783234,158.414658 
	C202.778214,156.129440 202.914276,154.068146 203.048599,151.567322 
	C203.356171,153.526382 203.665482,155.924942 203.888580,158.767258 
	C203.509674,159.020203 203.217010,158.829391 202.783234,158.414658 
z"/>
<path fill="#B68EDA" opacity="1.000000" stroke="none" 
	d="
M97.000870,68.629486 
	C95.979820,68.850311 94.783096,68.725197 93.309814,68.368324 
	C94.297241,68.185562 95.561218,68.234558 97.000870,68.629486 
z"/>
<path fill="#5870D6" opacity="1.000000" stroke="none" 
	d="
M72.840012,164.778519 
	C72.974014,164.978439 72.575539,164.989822 72.376251,164.990067 
	C72.176956,164.990311 72.014908,164.554337 71.949501,164.332001 
	C72.210587,164.173935 72.484558,164.330246 72.840012,164.778519 
z"/>
<path fill="#A1BCE7" opacity="1.000000" stroke="none" 
	d="
M188.843536,103.157570 
	C189.378296,102.870338 189.913071,102.583115 190.730530,102.186226 
	C193.111572,104.019539 195.209900,105.962517 197.661240,107.949181 
	C194.671265,117.382988 188.347198,124.194473 179.887161,129.080963 
	C178.673080,126.223198 177.481476,123.418373 176.449005,120.133835 
	C177.731644,119.094131 178.855148,118.534149 180.226074,118.185265 
	C181.278748,119.497482 182.084000,120.598610 182.889236,121.699738 
	C183.191254,121.545692 183.493256,121.391647 183.795258,121.237602 
	C182.977234,119.206863 182.159195,117.176117 181.367981,115.211983 
	C182.610779,114.123047 183.738892,113.134598 185.081528,111.865707 
	C188.089645,109.454185 190.402451,107.120743 188.843536,103.157570 
z"/>
<path fill="#C34B72" opacity="1.000000" stroke="none" 
	d="
M189.775513,160.851196 
	C190.519318,161.887192 191.263123,162.923203 191.996613,164.485245 
	C189.627167,165.269058 187.265717,165.763168 184.909317,165.740204 
	C177.882278,165.671738 170.857239,165.400360 163.434753,165.232849 
	C156.469742,165.434906 149.901367,165.612350 143.494858,165.609558 
	C144.149094,164.983582 144.641479,164.537842 145.331863,163.991470 
	C145.793457,163.744873 146.002762,163.542709 146.441956,163.238251 
	C146.897934,163.106537 147.069717,163.020935 147.683182,162.997833 
	C155.448242,162.790588 162.771622,162.520889 170.095016,162.251190 
	C174.436020,162.215042 178.777008,162.178909 184.001770,162.123657 
	C186.515533,161.686783 188.145523,161.268982 189.775513,160.851196 
z"/>
<path fill="#89A1E7" opacity="1.000000" stroke="none" 
	d="
M147.241516,162.935349 
	C147.069717,163.020935 146.897934,163.106537 146.099426,163.100403 
	C142.693329,161.754440 139.327194,160.843079 141.494781,156.445847 
	C143.314041,156.814072 144.897873,157.134644 146.905136,157.540924 
	C145.447418,154.711670 144.311539,152.507065 143.514374,150.212296 
	C145.903366,148.731812 147.953644,147.341461 150.280304,145.942108 
	C151.039536,146.159164 151.522400,146.385269 152.029907,146.968933 
	C152.354889,148.211563 152.655212,149.096619 152.955536,149.981674 
	C152.402115,152.082962 151.848694,154.184235 150.834610,156.775665 
	C149.329803,159.155655 148.285660,161.045502 147.241516,162.935349 
z"/>
<path fill="#89A1E7" opacity="1.000000" stroke="none" 
	d="
M169.130554,122.892052 
	C170.721970,126.291733 172.313385,129.691406 173.572418,133.657349 
	C170.489944,135.465652 167.739838,136.707703 164.917053,137.653778 
	C164.277344,136.833054 163.710312,136.308304 163.128937,135.441864 
	C162.386108,133.429520 161.657623,131.758835 161.230225,129.913177 
	C164.064392,127.456146 166.597473,125.174095 169.130554,122.892052 
z"/>
<path fill="#63A9E3" opacity="1.000000" stroke="none" 
	d="
M161.752670,146.837097 
	C161.116089,147.222229 160.479507,147.607361 159.489441,147.681030 
	C156.804718,143.903152 154.473480,140.436737 151.958557,136.680084 
	C148.036819,132.747452 145.100052,128.754211 146.257416,123.038010 
	C147.302139,123.268478 148.045868,123.561195 149.111816,123.919159 
	C149.648071,124.031425 149.862122,124.078453 150.032867,124.486588 
	C150.950256,126.561951 151.910965,128.276199 153.023849,130.290375 
	C154.417786,132.385803 155.659576,134.181335 157.102829,136.233002 
	C157.855499,136.833588 158.406693,137.177994 158.955261,137.781494 
	C159.246017,138.649567 159.539398,139.258560 159.943771,140.222214 
	C160.620743,142.663620 161.186707,144.750366 161.752670,146.837097 
z"/>
<path fill="#5870D6" opacity="1.000000" stroke="none" 
	d="
M152.142242,136.970322 
	C154.473480,140.436737 156.804718,143.903152 159.213135,147.744080 
	C158.140228,148.344360 156.990143,148.570129 155.234680,148.539505 
	C153.754623,147.725861 152.879944,147.168610 152.005249,146.611359 
	C151.522400,146.385269 151.039536,146.159164 150.268204,145.595276 
	C149.315155,143.564438 148.650589,141.871399 148.060486,139.829956 
	C149.470718,138.644470 150.806473,137.807388 152.142242,136.970322 
z"/>
<path fill="#CFCEDB" opacity="1.000000" stroke="none" 
	d="
M147.683182,162.997833 
	C148.285660,161.045502 149.329803,159.155655 150.660522,157.092743 
	C153.300705,157.946198 155.568481,159.342865 158.027878,159.913269 
	C161.802231,160.788605 165.708405,161.095596 169.826828,161.947479 
	C162.771622,162.520889 155.448242,162.790588 147.683182,162.997833 
z"/>
<path fill="#3CABD7" opacity="1.000000" stroke="none" 
	d="
M176.993179,135.231644 
	C177.344681,135.169815 177.626526,135.282410 177.933197,136.156708 
	C178.038666,137.505753 178.049622,138.267487 177.928268,139.239349 
	C177.586044,139.715836 177.324570,139.914215 176.699966,140.079315 
	C175.925751,140.727631 175.463074,141.341263 174.996185,141.972137 
	C174.991974,141.989365 174.955566,141.996811 174.612305,142.040710 
	C171.529617,144.712021 168.790192,147.339447 166.050781,149.966888 
	C166.050781,149.966888 165.905777,149.998474 165.764862,149.761414 
	C165.066681,149.066299 164.509415,148.608231 163.952133,148.150162 
	C163.952133,148.150162 163.970215,148.042740 163.963898,147.661865 
	C164.632919,145.606049 165.308258,143.931076 166.335724,142.173630 
	C170.122971,139.804642 173.558075,137.518143 176.993179,135.231644 
z"/>
<path fill="#51B0E1" opacity="1.000000" stroke="none" 
	d="
M165.876236,118.286003 
	C165.876236,118.286003 165.927429,118.672035 165.909149,119.203842 
	C163.610367,122.490669 161.329880,125.245674 158.837891,127.952469 
	C158.626404,127.904259 158.201981,127.818649 158.043976,127.566689 
	C157.285965,126.535835 156.685928,125.756943 156.382874,124.831512 
	C158.948090,122.071701 161.216324,119.458420 163.750092,116.935410 
	C164.635818,117.445786 165.256027,117.865891 165.876236,118.286003 
z"/>
<path fill="#DB96BD" opacity="1.000000" stroke="none" 
	d="
M176.704681,135.044098 
	C173.558075,137.518143 170.122971,139.804642 166.336060,141.795502 
	C165.652725,140.316513 165.321228,139.133133 164.989731,137.949768 
	C167.739838,136.707703 170.489944,135.465652 173.551788,134.047729 
	C174.714417,134.200104 175.565292,134.528336 176.704681,135.044098 
z"/>
<path fill="#63A9E3" opacity="1.000000" stroke="none" 
	d="
M166.148270,150.268036 
	C168.790192,147.339447 171.529617,144.712021 174.589890,142.372833 
	C174.586426,144.423187 174.262100,146.185303 173.937775,147.947433 
	C172.020355,149.399139 170.102921,150.850861 167.855530,152.552383 
	C167.415436,152.010193 166.830597,151.289673 166.148270,150.268036 
z"/>
<path fill="#73C3E8" opacity="1.000000" stroke="none" 
	d="
M159.049393,128.000687 
	C161.329880,125.245674 163.610367,122.490669 165.945618,119.395096 
	C166.982529,120.129799 167.964676,121.205070 169.038681,122.586197 
	C166.597473,125.174095 164.064392,127.456146 160.986252,129.759064 
	C159.977264,129.186844 159.513336,128.593765 159.049393,128.000687 
z"/>
<path fill="#51B0E1" opacity="1.000000" stroke="none" 
	d="
M171.991531,115.009094 
	C171.202942,114.404861 170.414368,113.800629 169.316925,112.843338 
	C169.008072,112.490273 168.987045,112.019676 169.234741,111.809769 
	C171.399918,110.795052 173.317429,109.990242 175.422195,109.106827 
	C175.456650,109.189987 175.208527,108.591087 175.291962,108.028519 
	C176.685806,108.374245 177.748093,108.683647 178.877258,109.222244 
	C178.944153,109.451439 179.011566,109.924149 178.985443,110.282318 
	C178.580673,111.471642 178.202026,112.302803 177.557739,113.087143 
	C175.525253,113.696579 173.758392,114.352837 171.991531,115.009094 
z"/>
<path fill="#A1BCE7" opacity="1.000000" stroke="none" 
	d="
M174.271820,147.863373 
	C174.262100,146.185303 174.586426,144.423187 174.933151,142.328934 
	C174.955566,141.996811 174.991974,141.989365 175.306610,141.937439 
	C176.084656,141.271866 176.548080,140.658249 177.011505,140.044632 
	C177.324570,139.914215 177.586044,139.715836 178.261871,139.239212 
	C179.173920,139.011002 179.620071,138.993073 180.066223,138.975128 
	C180.246277,140.239685 181.040558,142.037186 180.491943,142.669495 
	C178.806122,144.612411 176.606064,146.109131 174.271820,147.863373 
z"/>
<path fill="#CFCEDB" opacity="1.000000" stroke="none" 
	d="
M164.917053,137.653793 
	C165.321228,139.133133 165.652725,140.316513 165.983917,141.877991 
	C165.308258,143.931076 164.632919,145.606049 163.911560,147.646820 
	C163.343872,147.714310 162.822205,147.415955 162.026611,146.977356 
	C161.186707,144.750366 160.620743,142.663620 160.342957,140.240829 
	C161.468536,138.531036 162.305908,137.157288 163.143280,135.783539 
	C163.710312,136.308304 164.277344,136.833054 164.917053,137.653793 
z"/>
<path fill="#D4D7DD" opacity="1.000000" stroke="none" 
	d="
M168.987045,112.019676 
	C168.987045,112.019676 169.008072,112.490273 169.042694,112.723145 
	C168.054718,114.489456 167.032104,116.022896 165.942871,117.921173 
	C165.256027,117.865891 164.635818,117.445786 163.561142,116.682182 
	C162.366913,115.622307 161.627151,114.905922 160.958405,113.816360 
	C162.109161,112.041435 163.188889,110.639671 164.542847,109.457260 
	C166.207062,110.457649 167.597061,111.238663 168.987045,112.019676 
z"/>
<path fill="#73C3E8" opacity="1.000000" stroke="none" 
	d="
M172.122437,115.305084 
	C173.758392,114.352837 175.525253,113.696579 177.647095,113.404694 
	C178.660934,115.170769 179.319794,116.572464 179.978653,117.974167 
	C178.855148,118.534149 177.731644,119.094131 176.324921,119.797729 
	C174.778900,118.494591 173.516113,117.047836 172.122437,115.305084 
z"/>
<path fill="#CFCEDB" opacity="1.000000" stroke="none" 
	d="
M189.841370,160.595978 
	C188.145523,161.268982 186.515533,161.686783 184.462112,162.040024 
	C184.555008,158.708557 186.707672,157.820374 190.090881,158.159393 
	C190.312592,158.923401 190.109909,159.632095 189.841370,160.595978 
z"/>
<path fill="#DB8649" opacity="1.000000" stroke="none" 
	d="
M200.616730,122.061348 
	C200.875473,124.462082 200.919556,126.793350 200.958679,129.565216 
	C200.953705,130.005798 200.521454,129.964203 200.304474,129.953766 
	C200.005859,128.537933 199.924225,127.132553 199.830826,124.946945 
	C199.866135,123.411278 199.913177,122.655830 199.960236,121.900383 
	C199.960236,121.900383 200.402084,121.991882 200.616730,122.061348 
z"/>
<path fill="#63A9E3" opacity="1.000000" stroke="none" 
	d="
M180.097504,138.657867 
	C179.620071,138.993073 179.173920,139.011002 178.394165,139.029083 
	C178.049622,138.267487 178.038666,137.505753 178.049988,136.364716 
	C178.757767,136.770477 179.443283,137.555542 180.097504,138.657867 
z"/>
<path fill="#CFCEDB" opacity="1.000000" stroke="none" 
	d="
M152.029907,146.968933 
	C152.879944,147.168610 153.754623,147.725861 154.869431,148.480286 
	C154.611740,149.082687 154.113922,149.487915 153.285828,149.937408 
	C152.655212,149.096619 152.354889,148.211563 152.029907,146.968933 
z"/>
<path fill="#CFCEDB" opacity="1.000000" stroke="none" 
	d="
M199.828720,121.698494 
	C199.913177,122.655830 199.866135,123.411278 199.738525,124.534164 
	C199.446075,123.764420 199.234177,122.627228 199.053131,121.121414 
	C199.344498,120.954514 199.548904,121.202446 199.828720,121.698494 
z"/>
<path fill="#CFCEDB" opacity="1.000000" stroke="none" 
	d="
M164.009674,148.433350 
	C164.509415,148.608231 165.066681,149.066299 165.696426,149.790070 
	C165.201660,149.609375 164.634445,149.162949 164.009674,148.433350 
z"/>
<path fill="#D4D7DD" opacity="1.000000" stroke="none" 
	d="
M75.642914,70.005928 
	C80.911880,69.755997 85.947060,69.885429 91.579216,70.166321 
	C92.381630,70.531914 92.632462,70.631882 92.928680,70.617668 
	C94.636650,70.704849 96.344627,70.792038 98.475449,70.846390 
	C104.948494,71.218529 110.998695,71.623512 117.633408,72.199768 
	C118.421288,72.592224 118.672279,72.719223 118.970901,72.752037 
	C121.009438,72.813202 123.047966,72.874367 125.521049,72.908951 
	C133.002869,73.581459 140.050125,74.280548 147.550140,75.009033 
	C146.773911,79.459946 148.198395,82.777023 151.393433,86.116028 
	C155.111710,90.001839 157.838837,94.698318 154.186920,100.536667 
	C151.782043,101.053726 149.887512,101.473434 147.639832,101.919830 
	C145.121338,104.111038 142.946060,106.265793 140.793915,108.443405 
	C139.265778,109.989624 137.768860,111.566704 135.857452,113.087273 
	C128.029907,111.695541 121.414871,113.844299 115.056572,117.530228 
	C111.474266,119.606911 107.654770,121.271843 103.962486,123.162041 
	C99.255196,125.571861 94.385155,127.730309 89.923737,130.535431 
	C85.329674,133.423935 81.345833,137.499405 75.185753,135.986588 
	C75.260208,114.119492 75.334656,92.252388 75.642914,70.005928 
z"/>
<path fill="#3CABD7" opacity="1.000000" stroke="none" 
	d="
M178.810379,108.993057 
	C177.748093,108.683647 176.685806,108.374245 175.008484,107.875710 
	C173.331451,106.763939 172.269470,105.841293 171.119675,104.842369 
	C175.736008,99.209671 183.389847,96.775406 184.996704,89.079498 
	C188.700623,88.593849 192.404541,88.108200 196.554108,87.536087 
	C191.877930,92.422661 186.756088,97.395691 181.137451,102.802383 
	C180.030563,105.155045 179.420471,107.074051 178.810379,108.993057 
z"/>
<path fill="#2DADD1" opacity="1.000000" stroke="none" 
	d="
M184.586273,89.045456 
	C183.389847,96.775406 175.736008,99.209671 171.119675,104.842369 
	C172.269470,105.841293 173.331451,106.763939 174.676926,107.839386 
	C175.208527,108.591087 175.456650,109.189987 175.422195,109.106827 
	C173.317429,109.990242 171.399918,110.795052 169.234741,111.809769 
	C167.597061,111.238663 166.207062,110.457649 164.397186,109.253052 
	C163.443924,108.393929 162.910568,107.958382 162.741898,107.320412 
	C165.080612,106.549927 167.054611,105.981857 169.496460,105.279167 
	C165.974533,102.269569 167.672440,100.173119 170.510223,98.318443 
	C172.572144,96.970825 174.790115,95.805168 176.643967,94.214996 
	C177.988632,93.061577 178.851105,91.346001 179.928589,89.881088 
	C179.928589,89.881088 179.935318,89.978836 180.102020,89.913124 
	C180.526428,89.771225 180.744843,89.632965 180.923935,89.432625 
	C182.007904,89.292221 183.091858,89.151817 184.586273,89.045456 
z"/>
<path fill="#33C4DD" opacity="1.000000" stroke="none" 
	d="
M147.992966,101.893143 
	C149.887512,101.473434 151.782043,101.053726 153.953537,100.814056 
	C154.139420,102.747345 154.048370,104.500618 153.842682,106.983055 
	C152.416611,109.374306 151.171295,111.094376 149.777496,112.684273 
	C147.892288,114.834686 145.893082,116.885155 143.815872,119.046539 
	C143.688980,119.114578 143.401215,119.126030 143.069153,118.986435 
	C141.295547,117.640274 139.854019,116.433701 139.156677,115.850014 
	C142.356339,110.796158 145.174652,106.344643 147.992966,101.893143 
z"/>
<path fill="#2889C2" opacity="1.000000" stroke="none" 
	d="
M179.550568,89.876778 
	C178.851105,91.346001 177.988632,93.061577 176.643967,94.214996 
	C174.790115,95.805168 172.572144,96.970825 170.510223,98.318443 
	C167.672440,100.173119 165.974533,102.269569 169.496460,105.279167 
	C167.054611,105.981857 165.080612,106.549927 162.409912,107.276367 
	C160.797714,107.349831 159.882217,107.264915 159.063965,106.883255 
	C159.426270,106.022430 159.691315,105.458344 159.956360,104.894257 
	C159.956360,104.894257 159.978867,104.965492 160.170593,104.887505 
	C160.661301,104.635979 160.819870,104.376678 160.838058,104.031601 
	C162.663132,101.904335 164.173141,99.341270 166.381760,97.744530 
	C170.427734,94.819466 174.886139,92.464912 179.550568,89.876778 
z"/>
<path fill="#6677D6" opacity="1.000000" stroke="none" 
	d="
M159.598358,104.892288 
	C159.691315,105.458344 159.426270,106.022430 158.905991,107.143845 
	C157.781906,109.072624 156.913040,110.444069 155.714783,111.929085 
	C153.269882,114.397308 151.154358,116.751968 148.614944,119.103104 
	C146.774963,119.059227 145.358856,119.018860 143.942764,118.978493 
	C145.893082,116.885155 147.892288,114.834686 149.777496,112.684273 
	C151.171295,111.094376 152.416611,109.374306 153.881683,107.420593 
	C155.770325,106.382744 157.505341,105.636528 159.598358,104.892288 
z"/>
<path fill="#6677D6" opacity="1.000000" stroke="none" 
	d="
M160.642532,104.142563 
	C160.819870,104.376678 160.661301,104.635979 160.134064,104.879745 
	C159.980865,104.635841 160.161270,104.403687 160.642532,104.142563 
z"/>
<path fill="#CE97CE" opacity="1.000000" stroke="none" 
	d="
M161.250702,75.813408 
	C161.232086,75.501068 161.476852,75.443710 161.846649,75.712364 
	C161.933990,75.823814 161.476395,75.853813 161.250702,75.813408 
z"/>
<path fill="#3CABD7" opacity="1.000000" stroke="none" 
	d="
M180.716797,89.413406 
	C180.744843,89.632965 180.526428,89.771225 180.073242,89.873489 
	C180.003983,89.625511 180.214615,89.457054 180.716797,89.413406 
z"/>
<path fill="#CBD0DA" opacity="1.000000" stroke="none" 
	d="
M143.815872,119.046539 
	C145.358856,119.018860 146.774963,119.059227 148.622650,119.468872 
	C149.091293,120.576454 149.128342,121.314751 149.080841,122.348854 
	C148.927383,123.047745 148.858505,123.450829 148.789612,123.853920 
	C148.045868,123.561195 147.302139,123.268478 145.856445,123.010582 
	C142.779099,124.035324 140.403687,125.025246 137.803192,126.201355 
	C137.342865,126.922127 137.107635,127.456726 136.623749,127.743958 
	C132.760010,122.313011 127.455750,125.497612 124.132668,126.530029 
	C109.136543,131.189056 95.087006,137.808044 84.937912,150.759857 
	C82.519485,153.846146 78.457481,155.644531 75.151459,158.035309 
	C75.103928,150.994553 75.056389,143.953812 75.097305,136.449829 
	C81.345833,137.499405 85.329674,133.423935 89.923737,130.535431 
	C94.385155,127.730309 99.255196,125.571861 103.962486,123.162041 
	C107.654770,121.271843 111.474266,119.606911 115.056572,117.530228 
	C121.414871,113.844299 128.029907,111.695541 135.727478,113.362564 
	C136.518951,118.662354 139.952621,121.188011 143.401215,119.126030 
	C143.401215,119.126030 143.688980,119.114578 143.815872,119.046539 
z"/>
<path fill="#C4CAD5" opacity="1.000000" stroke="none" 
	d="
M75.109070,158.358231 
	C78.457481,155.644531 82.519485,153.846146 84.937912,150.759857 
	C95.087006,137.808044 109.136543,131.189056 124.132668,126.530029 
	C127.455750,125.497612 132.760010,122.313011 136.405609,128.015045 
	C132.603119,128.759949 129.922623,130.658829 127.841278,134.092163 
	C124.072105,134.267807 120.726860,134.161682 117.506516,134.745026 
	C108.636902,136.351685 102.051712,142.064819 95.729599,147.885834 
	C91.815224,151.489975 88.558853,155.808762 84.560295,159.871246 
	C81.394081,160.073090 78.674683,160.210434 75.955284,160.347778 
	C75.659088,159.792252 75.362892,159.236710 75.109070,158.358231 
z"/>
<path fill="#5870D6" opacity="1.000000" stroke="none" 
	d="
M80.295074,185.883408 
	C78.274994,179.265045 76.576439,172.503128 74.906097,165.385345 
	C74.934303,165.029449 75.369820,165.012634 75.856735,165.042725 
	C76.521729,165.089447 76.699799,165.106049 76.921494,165.461609 
	C78.012909,166.885742 79.060699,167.970932 80.074860,169.462997 
	C81.037651,173.066315 82.201012,176.222488 82.984070,179.470367 
	C83.784393,182.789825 85.414520,184.651306 89.033569,184.124268 
	C86.227913,184.662796 83.422249,185.201340 80.295074,185.883408 
z"/>
<path fill="#2DADD1" opacity="1.000000" stroke="none" 
	d="
M75.961517,160.710083 
	C78.674683,160.210434 81.394081,160.073090 84.935196,159.944534 
	C86.518257,160.020615 87.279594,160.087891 88.186096,160.331940 
	C88.741562,160.686432 89.151855,160.864120 89.670517,161.357758 
	C89.831444,162.115128 89.884010,162.556580 89.481110,162.998688 
	C84.698204,163.332199 80.370758,163.665039 76.043304,163.997894 
	C76.018120,163.022720 75.992943,162.047546 75.961517,160.710083 
z"/>
<path fill="#3CABD7" opacity="1.000000" stroke="none" 
	d="
M75.986450,164.253403 
	C80.370758,163.665039 84.698204,163.332199 89.736687,163.047623 
	C90.898636,163.317932 91.349564,163.539963 91.529419,163.830048 
	C90.885239,163.946487 90.512138,163.994843 89.742477,164.184326 
	C85.189911,164.591187 81.033890,164.856918 76.877876,165.122665 
	C76.699799,165.106049 76.521729,165.089447 76.074646,165.045181 
	C75.846954,164.848007 75.888275,164.678467 75.986450,164.253403 
z"/>
<path fill="#7799E1" opacity="1.000000" stroke="none" 
	d="
M188.964630,167.820343 
	C193.416031,170.796265 197.892014,173.736694 202.294312,176.783569 
	C203.015259,177.282547 203.411713,178.250397 203.584717,179.422302 
	C202.140167,179.929764 201.069046,180.016510 199.621567,180.043701 
	C198.484818,179.928329 197.724396,179.872482 196.758698,179.621429 
	C196.006241,179.291931 195.459091,179.157654 194.613220,178.917389 
	C190.251419,179.383560 186.188309,179.955704 182.361023,180.335114 
	C185.512283,177.169464 183.157394,175.871216 180.979080,174.070358 
	C179.019958,172.450699 177.595947,170.183762 176.335663,168.087784 
	C180.811829,167.922272 184.888229,167.871307 188.964630,167.820343 
z"/>
<path fill="#D28193" opacity="1.000000" stroke="none" 
	d="
M199.997910,180.103241 
	C201.069046,180.016510 202.140167,179.929764 203.601715,179.736481 
	C206.718460,179.678024 209.444778,179.726105 212.626465,180.180405 
	C216.345123,186.409286 220.521881,190.702179 227.972656,190.110275 
	C228.921432,190.034882 229.975052,191.278915 230.980103,191.911697 
	C230.226196,191.937119 229.472290,191.962524 228.340240,191.998032 
	C223.275757,191.681717 218.589401,191.355316 213.035034,191.029587 
	C209.789215,191.336441 207.411423,191.642624 205.013580,191.586090 
	C203.328751,189.106354 201.684875,186.972412 199.992432,184.877747 
	C198.686203,183.261078 197.466293,181.693604 199.997910,180.103241 
z"/>
<path fill="#D67F73" opacity="1.000000" stroke="none" 
	d="
M231.323181,191.974304 
	C229.975052,191.278915 228.921432,190.034882 227.972656,190.110275 
	C220.521881,190.702179 216.345123,186.409286 213.029602,180.226013 
	C217.671295,179.536621 222.365204,179.207825 227.498871,178.841003 
	C225.347748,181.584518 226.971252,182.687195 229.599609,184.141235 
	C232.607513,185.805252 235.207306,188.207001 238.013062,190.650513 
	C237.156616,191.520844 236.271561,192.028854 235.179535,192.770065 
	C233.870453,192.681137 232.768372,192.359024 231.323181,191.974304 
z"/>
<path fill="#D28193" opacity="1.000000" stroke="none" 
	d="
M189.247757,167.550613 
	C184.888229,167.871307 180.811829,167.922272 176.142151,167.990082 
	C175.548874,168.006912 175.121078,167.936111 174.888733,167.694366 
	C173.798492,167.409958 172.940567,167.367279 171.712204,167.265656 
	C170.597870,167.262070 169.854004,167.317429 168.786942,167.256973 
	C168.009445,167.103958 167.555115,167.066772 166.808914,167.107407 
	C165.982040,167.464676 165.447037,167.744095 164.721100,167.964905 
	C164.530182,167.906281 164.169159,167.735413 164.144836,167.415894 
	C164.024139,166.467010 163.927765,165.837631 163.831406,165.208252 
	C170.857239,165.400360 177.882278,165.671738 184.909317,165.740204 
	C187.265717,165.763168 189.627167,165.269058 192.238831,164.710022 
	C193.921143,164.778961 195.350922,165.149170 197.031738,165.756836 
	C194.698837,166.423157 192.114853,166.852005 189.247757,167.550613 
z"/>
<path fill="#9381DC" opacity="1.000000" stroke="none" 
	d="
M117.325592,199.027802 
	C114.604851,199.352386 112.205864,199.667404 109.405991,200.006317 
	C107.923706,200.026993 106.842323,200.023788 105.038719,200.026154 
	C103.893097,200.036316 103.469696,200.040909 103.046295,200.045502 
	C103.046295,200.045502 103.005775,200.009399 102.984818,199.991333 
	C98.981544,199.642090 94.999367,199.309372 91.016861,198.980438 
	C89.247307,198.834290 87.477127,198.695755 85.397011,198.296173 
	C87.809692,197.800797 90.532585,197.563019 94.086166,197.171112 
	C98.630676,197.024292 102.344498,197.031616 106.335495,197.281570 
	C108.643318,197.608444 110.673965,197.692688 112.704613,197.776947 
	C112.611801,197.542725 112.553040,197.284561 112.412125,197.084152 
	C112.339172,196.980392 112.120613,196.979019 111.958878,196.565186 
	C111.438171,195.032562 111.027031,193.808563 110.397835,192.709381 
	C107.047195,186.855972 107.155823,186.382858 113.342766,182.976227 
	C114.187744,182.985535 114.670982,182.978561 115.556992,182.973694 
	C118.971672,182.655273 121.983582,182.334732 124.888580,182.376755 
	C122.700417,183.423706 120.619148,184.108109 117.873383,185.011017 
	C119.603416,188.717209 121.300972,192.353821 122.998520,195.990417 
	C121.285645,195.990417 119.572777,195.990417 117.859901,195.990417 
	C117.769203,196.309402 117.678505,196.628387 117.587807,196.947372 
	C118.353836,197.474518 119.119873,198.001663 120.235550,198.769409 
	C119.156342,198.873154 118.401848,198.945679 117.325592,199.027802 
z"/>
<path fill="#CE97CE" opacity="1.000000" stroke="none" 
	d="
M146.012848,200.173004 
	C145.460312,199.610977 144.907791,199.048965 144.172714,198.250168 
	C144.910156,198.013397 145.830154,198.013397 147.710236,198.013397 
	C146.132858,196.807343 145.272781,196.149750 144.633041,195.253876 
	C146.235321,195.005066 147.617294,194.994522 149.426987,194.987946 
	C156.572556,194.330368 163.290375,193.668839 170.284027,193.229980 
	C175.376083,193.301575 180.192322,193.150482 184.982788,193.389282 
	C183.938507,194.519394 182.997223,195.416275 181.884308,195.965103 
	C179.959091,196.914490 177.927414,197.647980 175.700500,198.449707 
	C175.460602,198.427383 174.998840,198.289658 174.916931,198.099854 
	C174.557510,198.042892 174.279984,198.175720 173.623444,198.421158 
	C170.107239,198.921432 166.970093,199.309113 163.380951,199.739105 
	C157.290268,199.911957 151.651566,200.042480 146.012848,200.173004 
z"/>
<path fill="#AD84D9" opacity="1.000000" stroke="none" 
	d="
M148.999252,194.983978 
	C147.617294,194.994522 146.235321,195.005066 144.439911,195.016708 
	C141.644043,195.010559 139.261627,195.003311 136.388092,194.650757 
	C134.270721,192.537598 132.792725,190.598160 130.987259,189.037613 
	C127.261566,185.817291 127.415161,184.411407 132.465088,182.321762 
	C135.955444,182.263336 138.997803,182.287903 142.035797,182.681946 
	C143.317139,185.344574 144.576553,187.653030 145.897156,189.925934 
	C146.890503,191.635605 147.962341,193.299637 148.999252,194.983978 
z"/>
<path fill="#9E82DA" opacity="1.000000" stroke="none" 
	d="
M132.017075,182.404755 
	C127.415161,184.411407 127.261566,185.817291 130.987259,189.037613 
	C132.792725,190.598160 134.270721,192.537598 135.942520,194.647125 
	C131.955093,195.325500 127.922112,195.662216 123.443832,195.994659 
	C121.300972,192.353821 119.603416,188.717209 117.873383,185.011017 
	C120.619148,184.108109 122.700417,183.423706 124.798111,182.061462 
	C123.252754,179.452911 121.860039,177.568649 125.982071,177.386627 
	C125.998985,177.578873 126.075401,177.959686 126.187073,178.276031 
	C127.854134,179.392426 129.409531,180.192505 130.969009,181.009125 
	C130.973099,181.025665 131.006363,181.033173 131.102417,181.252258 
	C131.387024,181.755615 131.650299,181.920700 131.989685,182.076538 
	C131.991058,182.186462 132.017075,182.404755 132.017075,182.404755 
z"/>
<path fill="#DB96BD" opacity="1.000000" stroke="none" 
	d="
M215.248596,195.003555 
	C215.264557,194.912094 215.528336,194.817139 215.892059,194.856873 
	C215.992035,194.991547 215.496414,195.000061 215.248596,195.003555 
z"/>
<path fill="#DB96BD" opacity="1.000000" stroke="none" 
	d="
M175.940399,198.472031 
	C177.927414,197.647980 179.959091,196.914490 181.884308,195.965103 
	C182.997223,195.416275 183.938507,194.519394 185.415192,193.388489 
	C192.260117,192.648132 198.646866,192.298462 205.033630,191.948792 
	C207.411423,191.642624 209.789215,191.336441 212.579376,191.044861 
	C213.337921,193.676575 212.194519,194.926300 209.573654,195.357574 
	C207.731201,195.660736 205.986328,196.557083 203.749176,197.547699 
	C194.180450,198.095215 185.060425,198.283630 175.940399,198.472031 
z"/>
<path fill="#C34B72" opacity="1.000000" stroke="none" 
	d="
M175.700500,198.449707 
	C185.060425,198.283630 194.180450,198.095215 203.638245,197.897781 
	C203.827744,198.650101 203.679474,199.411438 202.887711,200.178909 
	C201.101074,200.391418 199.957916,200.597809 198.814774,200.804199 
	C198.814774,200.804199 198.448013,200.767365 198.265579,200.783127 
	C190.041473,201.159805 181.999817,201.520706 173.524078,201.944382 
	C171.704666,201.980316 170.319290,201.953491 168.255661,201.673492 
	C166.329239,200.845795 165.081085,200.271301 163.832932,199.696808 
	C166.970093,199.309113 170.107239,198.921432 173.872971,198.435135 
	C174.501541,198.336502 174.998840,198.289658 174.998840,198.289658 
	C174.998840,198.289658 175.460602,198.427383 175.700500,198.449707 
z"/>
<path fill="#DB96BD" opacity="1.000000" stroke="none" 
	d="
M199.052856,201.061096 
	C199.957916,200.597809 201.101074,200.391418 202.593872,200.252563 
	C201.725983,200.652725 200.508469,200.985352 199.052856,201.061096 
z"/>
<path fill="#2DADD1" opacity="1.000000" stroke="none" 
	d="
M89.377335,184.099884 
	C85.414520,184.651306 83.784393,182.789825 82.984070,179.470367 
	C82.201012,176.222488 81.037651,173.066315 80.381317,169.459824 
	C81.132462,169.053864 81.543526,169.057968 82.216736,169.273926 
	C85.658478,169.856842 88.838081,170.227921 92.192383,170.619400 
	C95.622604,170.384033 99.352661,170.128098 103.262329,169.912857 
	C103.441956,169.953552 103.797638,170.049362 103.839722,170.422607 
	C105.915321,174.198654 107.948845,177.601471 109.614105,181.028259 
	C105.225250,184.132492 101.117844,184.858673 97.334221,181.148743 
	C96.034531,182.710541 95.107025,183.825119 94.018845,184.723801 
	C93.543373,184.349808 93.228569,184.191696 92.608521,184.036377 
	C91.900635,184.085663 91.498009,184.132141 91.095375,184.178619 
	C90.637283,184.144257 90.179199,184.109879 89.377335,184.099884 
z"/>
<path fill="#7882E0" opacity="1.000000" stroke="none" 
	d="
M94.179520,184.939682 
	C95.107025,183.825119 96.034531,182.710541 97.334221,181.148743 
	C101.117844,184.858673 105.225250,184.132492 109.817123,181.257126 
	C111.252594,181.961334 112.116806,182.460648 112.981018,182.959961 
	C107.155823,186.382858 107.047195,186.855972 110.397835,192.709381 
	C111.027031,193.808563 111.438171,195.032562 111.536789,196.582886 
	C109.435204,196.990845 107.746765,197.014893 106.058327,197.038956 
	C102.344498,197.031616 98.630676,197.024292 94.454361,197.011566 
	C92.185822,193.177704 88.961128,189.695770 91.067123,184.548553 
	C91.498009,184.132141 91.900635,184.085663 92.775253,184.243652 
	C93.557991,184.611969 93.868752,184.775833 94.179520,184.939682 
z"/>
<path fill="#974AA1" opacity="1.000000" stroke="none" 
	d="
M163.380951,199.739120 
	C165.081085,200.271301 166.329239,200.845795 167.842743,201.651993 
	C163.060486,202.285858 158.012894,202.688034 152.515411,203.147781 
	C149.984985,203.302689 147.900055,203.515701 145.826157,203.437241 
	C145.056442,203.408096 144.312592,202.695435 143.556946,202.294495 
	C144.214111,201.711517 144.871277,201.128555 145.770660,200.359314 
	C151.651566,200.042480 157.290268,199.911957 163.380951,199.739120 
z"/>
<path fill="#CE97CE" opacity="1.000000" stroke="none" 
	d="
M178.877258,109.222244 
	C179.420471,107.074051 180.030563,105.155045 180.922287,103.034561 
	C183.527985,102.937729 185.852066,103.042374 188.509827,103.152298 
	C190.402451,107.120743 188.089645,109.454185 184.719879,111.848923 
	C182.432968,111.383110 180.722275,110.653625 179.011566,109.924149 
	C179.011566,109.924149 178.944153,109.451439 178.877258,109.222244 
z"/>
<path fill="#AD84D9" opacity="1.000000" stroke="none" 
	d="
M103.196411,200.235962 
	C103.469696,200.040909 103.893097,200.036316 104.633423,200.037766 
	C104.415741,200.171356 103.881134,200.298889 103.196411,200.235962 
z"/>
<path fill="#CE97CE" opacity="1.000000" stroke="none" 
	d="
M118.837746,72.589722 
	C118.672279,72.719223 118.421288,72.592224 118.095840,72.192322 
	C118.250854,72.092438 118.494469,72.230370 118.837746,72.589722 
z"/>
<path fill="#B68EDA" opacity="1.000000" stroke="none" 
	d="
M92.786652,70.474243 
	C92.632462,70.631882 92.381630,70.531914 92.040192,70.155396 
	C92.178261,70.045967 92.425079,70.158569 92.786652,70.474243 
z"/>
<path fill="#7194D6" opacity="1.000000" stroke="none" 
	d="
M178.985443,110.282318 
	C180.722275,110.653625 182.432968,111.383110 184.505341,112.129364 
	C183.738892,113.134598 182.610779,114.123047 181.367981,115.211983 
	C182.159195,117.176117 182.977234,119.206863 183.795258,121.237602 
	C183.493256,121.391647 183.191254,121.545692 182.889236,121.699738 
	C182.084000,120.598610 181.278748,119.497482 180.226074,118.185265 
	C179.319794,116.572464 178.660934,115.170769 177.912720,113.451523 
	C178.202026,112.302803 178.580673,111.471642 178.985443,110.282318 
z"/>
<path fill="#5870D6" opacity="1.000000" stroke="none" 
	d="
M143.175659,150.302444 
	C144.311539,152.507065 145.447418,154.711670 146.905136,157.540924 
	C144.897873,157.134644 143.314041,156.814072 141.494781,156.445847 
	C139.327194,160.843079 142.693329,161.754440 145.815247,163.146530 
	C146.002762,163.542709 145.793457,163.744873 144.926849,163.953308 
	C141.244324,163.630585 138.164810,163.245407 135.068115,162.500305 
	C133.022202,158.814377 130.993454,155.488373 129.007477,151.863220 
	C129.356415,151.073288 129.662567,150.582520 130.075439,150.443054 
	C133.790787,152.684341 137.076447,152.606689 140.163788,149.563995 
	C140.550034,149.183350 142.142227,150.026382 143.175659,150.302444 
z"/>
<path fill="#BD87D0" opacity="1.000000" stroke="none" 
	d="
M163.434753,165.232849 
	C163.927765,165.837631 164.024139,166.467010 163.683975,167.478455 
	C158.424271,167.887375 153.597641,167.818298 148.779663,167.990509 
	C146.970947,168.055161 145.182297,168.680374 143.231644,169.327026 
	C140.462448,169.382797 137.843567,169.187805 135.230438,168.933472 
	C132.172470,168.635895 129.119522,168.286591 126.212524,167.748352 
	C126.882401,167.102615 127.404144,166.668228 128.395584,166.196716 
	C133.687851,166.036316 138.510437,165.913055 143.333008,165.789795 
	C149.901367,165.612350 156.469742,165.434906 163.434753,165.232849 
z"/>
<path fill="#965BBA" opacity="1.000000" stroke="none" 
	d="
M143.494858,165.609558 
	C138.510437,165.913055 133.687851,166.036316 128.031662,166.134171 
	C126.706078,166.035233 126.214096,165.961716 125.632454,165.529419 
	C123.839607,164.823135 122.141975,164.208450 120.432320,164.172958 
	C111.627739,163.990250 102.820076,163.956131 94.126434,163.664062 
	C94.446327,163.214569 94.696106,163.028763 95.454865,162.956894 
	C101.921646,162.781433 107.922287,162.549622 114.363083,162.335785 
	C121.563919,162.522583 128.324600,162.691406 135.085281,162.860229 
	C138.164810,163.245407 141.244324,163.630585 144.728851,164.053925 
	C144.641479,164.537842 144.149094,164.983582 143.494858,165.609558 
z"/>
<path fill="#5294DB" opacity="1.000000" stroke="none" 
	d="
M143.514374,150.212296 
	C142.142227,150.026382 140.550034,149.183350 140.163788,149.563995 
	C137.076447,152.606689 133.790787,152.684341 130.389877,150.222931 
	C131.080032,147.448486 131.562454,145.245529 132.413864,143.040863 
	C133.520844,143.036423 134.258850,143.033691 135.000275,143.347931 
	C136.352402,144.111710 137.701080,144.558533 139.179718,145.261353 
	C140.043716,145.031326 141.053421,144.706192 141.451523,144.024109 
	C142.167267,142.797791 142.516098,141.357315 143.432983,139.998444 
	C145.227173,140.053162 146.606583,140.115753 147.986008,140.178345 
	C148.650589,141.871399 149.315155,143.564438 149.991821,145.604309 
	C147.953644,147.341461 145.903366,148.731812 143.514374,150.212296 
z"/>
<path fill="#CE97CE" opacity="1.000000" stroke="none" 
	d="
M163.128937,135.441864 
	C162.305908,137.157288 161.468536,138.531036 160.231964,139.886154 
	C159.539398,139.258560 159.246017,138.649567 158.825943,137.454620 
	C158.099945,136.571396 157.500656,136.274124 156.901352,135.976852 
	C155.659576,134.181335 154.417786,132.385803 153.385315,130.245148 
	C155.130417,129.206223 156.666199,128.512436 158.201981,127.818649 
	C158.201981,127.818649 158.626404,127.904259 158.837891,127.952469 
	C159.513336,128.593765 159.977264,129.186844 160.685165,129.934052 
	C161.657623,131.758835 162.386108,133.429520 163.128937,135.441864 
z"/>
<path fill="#2889C2" opacity="1.000000" stroke="none" 
	d="
M148.060486,139.829956 
	C146.606583,140.115753 145.227173,140.053162 143.407089,139.631317 
	C142.674850,137.854965 142.383286,136.437820 142.081299,134.672195 
	C141.395996,133.201889 140.721115,132.080078 139.879669,130.658707 
	C139.151505,128.911148 138.589890,127.463165 138.028275,126.015167 
	C140.403687,125.025246 142.779099,124.035324 145.555481,123.072830 
	C145.100052,128.754211 148.036819,132.747452 151.958557,136.680084 
	C150.806473,137.807388 149.470718,138.644470 148.060486,139.829956 
z"/>
<path fill="#AD84D9" opacity="1.000000" stroke="none" 
	d="
M158.043976,127.566696 
	C156.666199,128.512436 155.130417,129.206223 153.233154,129.945221 
	C151.910965,128.276199 150.950256,126.561951 150.032379,124.442123 
	C150.075241,124.036545 149.992645,124.010773 150.376862,123.999245 
	C151.530136,123.949600 152.299179,123.911491 153.384125,123.938820 
	C154.495316,124.328857 155.290604,124.653458 156.085892,124.978058 
	C156.685928,125.756943 157.285965,126.535835 158.043976,127.566696 
z"/>
<path fill="#CFCEDB" opacity="1.000000" stroke="none" 
	d="
M157.102829,136.233002 
	C157.500656,136.274124 158.099945,136.571396 158.828568,137.195541 
	C158.406693,137.177994 157.855499,136.833588 157.102829,136.233002 
z"/>
<path fill="#6677D6" opacity="1.000000" stroke="none" 
	d="
M149.111816,123.919159 
	C148.858505,123.450829 148.927383,123.047745 149.269012,122.544708 
	C149.692032,122.966759 149.842331,123.488770 149.992645,124.010773 
	C149.992645,124.010773 150.075241,124.036545 150.075714,124.081009 
	C149.862122,124.078453 149.648071,124.031425 149.111816,123.919159 
z"/>
<path fill="#63A9E3" opacity="1.000000" stroke="none" 
	d="
M176.699951,140.079315 
	C176.548080,140.658249 176.084656,141.271866 175.310822,141.920197 
	C175.463074,141.341263 175.925751,140.727631 176.699951,140.079315 
z"/>
<path fill="#3CABD7" opacity="1.000000" stroke="none" 
	d="
M156.382874,124.831520 
	C155.290604,124.653458 154.495316,124.328857 153.418304,123.598740 
	C155.364792,120.201149 157.593018,117.209084 160.087189,114.187332 
	C160.531235,114.168282 160.709320,114.178902 160.887390,114.189529 
	C161.627151,114.905922 162.366913,115.622307 163.295624,116.591919 
	C161.216324,119.458420 158.948090,122.071701 156.382874,124.831520 
z"/>
<path fill="#BAC0CE" opacity="1.000000" stroke="none" 
	d="
M160.958405,113.816360 
	C160.709320,114.178902 160.531235,114.168282 159.780823,114.095512 
	C158.153732,113.294090 157.098969,112.554810 156.044189,111.815521 
	C156.913040,110.444069 157.781906,109.072624 158.808731,107.440582 
	C159.882217,107.264915 160.797714,107.349831 162.045212,107.478790 
	C162.910568,107.958382 163.443924,108.393929 164.122955,109.033691 
	C163.188889,110.639671 162.109161,112.041435 160.958405,113.816360 
z"/>
<path fill="#2DADD1" opacity="1.000000" stroke="none" 
	d="
M143.069153,118.986435 
	C139.952621,121.188011 136.518951,118.662354 136.128036,113.405296 
	C137.768860,111.566704 139.265778,109.989624 140.793915,108.443405 
	C142.946060,106.265793 145.121338,104.111038 147.639832,101.919823 
	C145.174652,106.344643 142.356339,110.796158 139.156677,115.850014 
	C139.854019,116.433701 141.295547,117.640274 143.069153,118.986435 
z"/>
<path fill="#2889C2" opacity="1.000000" stroke="none" 
	d="
M155.714798,111.929092 
	C157.098969,112.554810 158.153732,113.294090 159.514862,114.125191 
	C157.593018,117.209084 155.364792,120.201149 153.102386,123.533295 
	C152.299179,123.911491 151.530136,123.949600 150.376862,123.999245 
	C149.842331,123.488770 149.692032,122.966759 149.353561,122.248901 
	C149.128342,121.314751 149.091293,120.576454 149.046539,119.472382 
	C151.154358,116.751968 153.269882,114.397308 155.714798,111.929092 
z"/>
<path fill="#2DADD1" opacity="1.000000" stroke="none" 
	d="
M137.803192,126.201355 
	C138.589890,127.463165 139.151505,128.911148 139.531982,130.714050 
	C138.245987,132.417755 137.141129,133.766571 136.042755,135.424133 
	C136.027252,136.143906 136.005249,136.554901 135.842804,137.068451 
	C135.649963,137.272797 135.527527,137.411011 135.558044,137.469711 
	C135.658585,137.663132 135.814499,137.827744 135.949585,138.266022 
	C135.935303,138.703033 135.920593,138.877472 135.717926,139.159622 
	C135.297409,139.454834 135.126846,139.687698 135.011200,140.348679 
	C135.001724,141.497925 134.999283,142.264450 134.996841,143.030975 
	C134.258850,143.033691 133.520844,143.036423 132.053925,143.019531 
	C130.182327,142.296188 129.039673,141.592484 127.996056,140.472168 
	C128.170792,138.078705 128.246490,136.101837 128.322189,134.124985 
	C129.922623,130.658829 132.603119,128.759949 136.654251,128.262390 
	C137.107635,127.456726 137.342865,126.922127 137.803192,126.201355 
z"/>
<path fill="#BAC0CE" opacity="1.000000" stroke="none" 
	d="
M127.841278,134.092163 
	C128.246490,136.101837 128.170792,138.078705 127.715630,140.715942 
	C124.870262,145.425949 125.908493,148.946503 128.964706,152.162369 
	C130.993454,155.488373 133.022202,158.814377 135.068115,162.500305 
	C128.324600,162.691406 121.563919,162.522583 114.424370,161.956116 
	C115.809998,158.797470 117.955605,156.203064 119.251938,153.237427 
	C121.326202,148.492081 119.228691,144.853149 115.015862,145.056686 
	C107.947342,145.398193 96.431061,155.658997 94.988716,162.900543 
	C94.696106,163.028763 94.446327,163.214569 93.756302,163.715317 
	C92.782318,163.902435 92.291405,163.832199 91.800491,163.761963 
	C91.349564,163.539963 90.898636,163.317932 90.192139,163.046967 
	C89.884010,162.556580 89.831444,162.115128 89.612137,161.110107 
	C88.977234,160.416061 88.509079,160.285614 88.040932,160.155182 
	C87.279594,160.087891 86.518257,160.020615 85.382019,159.880035 
	C88.558853,155.808762 91.815224,151.489975 95.729599,147.885834 
	C102.051712,142.064819 108.636902,136.351685 117.506516,134.745026 
	C120.726860,134.161682 124.072105,134.267807 127.841278,134.092163 
z"/>
<path fill="#5294DB" opacity="1.000000" stroke="none" 
	d="
M81.954582,169.062073 
	C81.543526,169.057968 81.132462,169.053864 80.414948,169.052933 
	C79.060699,167.970932 78.012909,166.885742 76.921494,165.461609 
	C81.033890,164.856918 85.189911,164.591187 89.717056,164.509811 
	C90.068398,165.128967 90.048599,165.563782 89.669022,166.160919 
	C86.857681,167.236206 84.406136,168.149139 81.954582,169.062073 
z"/>
<path fill="#3CABD7" opacity="1.000000" stroke="none" 
	d="
M88.186096,160.331955 
	C88.509079,160.285614 88.977234,160.416061 89.503769,160.794159 
	C89.151855,160.864120 88.741562,160.686432 88.186096,160.331955 
z"/>
<path fill="#4C35AE" opacity="1.000000" stroke="none" 
	d="
M90.028801,165.998581 
	C90.048599,165.563782 90.068398,165.128967 90.113617,164.368683 
	C90.512138,163.994843 90.885239,163.946487 91.529419,163.830048 
	C92.291405,163.832199 92.782318,163.902435 93.643356,163.921417 
	C102.820076,163.956131 111.627739,163.990250 120.432320,164.172958 
	C122.141975,164.208450 123.839607,164.823135 125.199448,165.531006 
	C115.606216,166.275696 106.356323,166.660004 96.692383,167.003723 
	C94.195152,166.641586 92.111977,166.320084 90.028801,165.998581 
z"/>
<path fill="#CA87BF" opacity="1.000000" stroke="none" 
	d="
M205.013580,191.586090 
	C198.646866,192.298462 192.260117,192.648132 185.440948,192.998596 
	C180.192322,193.150482 175.376083,193.301575 170.235168,192.884888 
	C168.721863,190.813324 167.172272,189.465317 166.438660,187.765198 
	C165.578552,185.771973 165.428284,183.472458 165.422638,181.239410 
	C168.922470,181.033783 171.969803,180.894516 175.340622,180.809204 
	C176.093048,180.797348 176.521957,180.731537 177.377945,180.708313 
	C179.245071,180.676544 180.685150,180.602188 182.125214,180.527832 
	C186.188309,179.955704 190.251419,179.383560 194.805695,179.142609 
	C195.852585,179.588074 196.408279,179.702362 196.963989,179.816650 
	C197.724396,179.872482 198.484818,179.928329 199.621567,180.043701 
	C197.466293,181.693604 198.686203,183.261078 199.992432,184.877747 
	C201.684875,186.972412 203.328751,189.106354 205.013580,191.586090 
z"/>
<path fill="#63A9E3" opacity="1.000000" stroke="none" 
	d="
M175.017120,180.755249 
	C171.969803,180.894516 168.922470,181.033783 164.994385,181.152435 
	C160.399155,181.378601 156.684723,181.625397 152.962494,181.519562 
	C149.764648,177.127945 146.574570,173.088989 143.384491,169.050018 
	C145.182297,168.680374 146.970947,168.055161 148.779663,167.990509 
	C153.597641,167.818298 158.424271,167.887375 163.708313,167.797974 
	C164.169159,167.735413 164.530182,167.906281 164.912567,168.202026 
	C165.862747,168.695511 166.430527,168.893250 167.068542,169.417633 
	C168.856216,171.270645 170.573669,172.797012 172.291107,174.323364 
	C172.643356,174.034973 172.995590,173.746567 173.347824,173.458176 
	C171.935257,171.429718 170.522690,169.401245 169.110123,167.372787 
	C169.854004,167.317429 170.597870,167.262070 171.964890,167.451538 
	C173.432373,167.776276 174.276733,167.856186 175.121078,167.936111 
	C175.121078,167.936111 175.548874,168.006912 175.742401,168.104614 
	C177.595947,170.183762 179.019958,172.450699 180.979080,174.070358 
	C183.157394,175.871216 185.512283,177.169464 182.361023,180.335114 
	C180.685150,180.602188 179.245071,180.676544 177.205627,180.568024 
	C176.076523,180.508530 175.546829,180.631897 175.017120,180.755249 
M179.378036,176.624283 
	C178.821228,176.430771 178.264404,176.237259 177.707596,176.043747 
	C177.652466,176.469528 177.597351,176.895325 177.542236,177.321106 
	C178.085556,177.246399 178.628876,177.171692 179.378036,176.624283 
M174.066864,174.417877 
	C174.347000,174.770752 174.627121,175.123627 174.907242,175.476501 
	C174.883560,174.739700 174.859879,174.002899 174.836197,173.266098 
	C174.572647,173.482849 174.309113,173.699600 174.066864,174.417877 
z"/>
<path fill="#7882E0" opacity="1.000000" stroke="none" 
	d="
M196.758698,179.621429 
	C196.408279,179.702362 195.852585,179.588074 195.104401,179.248581 
	C195.459091,179.157654 196.006241,179.291931 196.758698,179.621429 
z"/>
<path fill="#7799E1" opacity="1.000000" stroke="none" 
	d="
M168.786942,167.256973 
	C170.522690,169.401245 171.935257,171.429718 173.347824,173.458176 
	C172.995590,173.746567 172.643356,174.034973 172.291107,174.323364 
	C170.573669,172.797012 168.856216,171.270645 167.078705,169.072784 
	C167.046036,167.944046 167.073425,167.486801 167.100800,167.029572 
	C167.555115,167.066772 168.009445,167.103958 168.786942,167.256973 
z"/>
<path fill="#BD87D0" opacity="1.000000" stroke="none" 
	d="
M166.808914,167.107407 
	C167.073425,167.486801 167.046036,167.944046 167.008484,168.746124 
	C166.430527,168.893250 165.862747,168.695511 165.103485,168.260651 
	C165.447037,167.744095 165.982040,167.464676 166.808914,167.107407 
z"/>
<path fill="#7799E1" opacity="1.000000" stroke="none" 
	d="
M174.888733,167.694366 
	C174.276733,167.856186 173.432373,167.776276 172.335342,167.510483 
	C172.940567,167.367279 173.798492,167.409958 174.888733,167.694366 
z"/>
<path fill="#3CABD7" opacity="1.000000" stroke="none" 
	d="
M125.965149,177.194397 
	C121.860039,177.568649 123.252754,179.452911 124.905022,181.698914 
	C121.983582,182.334732 118.971672,182.655273 115.386566,182.659882 
	C112.255714,177.893723 109.698059,173.443497 107.573677,168.990234 
	C111.284714,169.524872 114.555069,170.124695 117.850082,170.517685 
	C118.240280,170.564240 118.765526,169.478546 119.366562,168.849777 
	C119.679314,168.669098 119.824524,168.526611 120.357285,168.304291 
	C122.169144,168.299545 123.564285,168.344925 124.968185,168.794800 
	C125.306351,171.864349 125.635750,174.529373 125.965149,177.194397 
M121.833977,174.777649 
	C121.663811,174.316589 121.493637,173.855530 121.323456,173.394455 
	C121.050720,173.541534 120.777992,173.688629 120.505264,173.835724 
	C120.784805,174.169769 121.064346,174.503799 121.833977,174.777649 
z"/>
<path fill="#5870D6" opacity="1.000000" stroke="none" 
	d="
M107.140404,168.993271 
	C109.698059,173.443497 112.255714,177.893723 114.983795,182.657776 
	C114.670982,182.978561 114.187744,182.985535 113.342766,182.976227 
	C112.116806,182.460648 111.252594,181.961334 110.185371,181.233154 
	C107.948845,177.601471 105.915321,174.198654 104.163483,170.272171 
	C105.343575,169.496750 106.241989,169.245010 107.140404,168.993271 
z"/>
<path fill="#B68EDA" opacity="1.000000" stroke="none" 
	d="
M106.335495,197.281570 
	C107.746765,197.014893 109.435204,196.990845 111.545738,196.949097 
	C112.120613,196.979019 112.339172,196.980392 112.412125,197.084152 
	C112.553040,197.284561 112.611801,197.542725 112.704613,197.776947 
	C110.673965,197.692688 108.643318,197.608444 106.335495,197.281570 
z"/>
<path fill="#BD87D0" opacity="1.000000" stroke="none" 
	d="
M152.970276,181.872208 
	C156.684723,181.625397 160.399155,181.378601 164.541855,181.218796 
	C165.428284,183.472458 165.578552,185.771973 166.438660,187.765198 
	C167.172272,189.465317 168.721863,190.813324 169.959351,192.662186 
	C163.290375,193.668839 156.572556,194.330368 149.426987,194.987946 
	C147.962341,193.299637 146.890503,191.635605 145.897156,189.925934 
	C144.576553,187.653030 143.317139,185.344574 142.427414,182.607147 
	C143.884567,182.165176 144.945740,182.167450 146.220062,182.361923 
	C147.284302,182.403061 148.135406,182.251999 149.384491,182.067322 
	C150.845078,181.979889 151.907684,181.926041 152.970276,181.872208 
z"/>
<path fill="#DB96BD" opacity="1.000000" stroke="none" 
	d="
M174.916931,198.099854 
	C174.998840,198.289658 174.501541,198.336502 174.252014,198.322525 
	C174.279984,198.175720 174.557510,198.042892 174.916931,198.099854 
z"/>
<path fill="#51B0E1" opacity="1.000000" stroke="none" 
	d="
M146.006927,182.169724 
	C144.945740,182.167450 143.884567,182.165176 142.431763,182.237701 
	C138.997803,182.287903 135.955444,182.263336 132.465088,182.321762 
	C132.017075,182.404755 131.991058,182.186462 131.874023,181.875153 
	C131.559998,181.311722 131.309784,181.134827 131.006363,181.033173 
	C131.006363,181.033173 130.973099,181.025665 130.930023,180.649078 
	C129.283096,179.501556 127.679245,178.730621 126.075401,177.959686 
	C126.075401,177.959686 125.998985,177.578873 125.982071,177.386627 
	C125.635750,174.529373 125.306351,171.864349 125.239861,168.674133 
	C125.689987,168.085876 125.877197,168.022797 126.064407,167.959732 
	C129.119522,168.286591 132.172470,168.635895 135.230438,168.933472 
	C137.843567,169.187805 140.462448,169.382797 143.231644,169.327026 
	C146.574570,173.088989 149.764648,177.127945 152.962494,181.519562 
	C151.907684,181.926041 150.845078,181.979889 149.012589,182.026184 
	C147.497437,182.068985 146.752182,182.119354 146.006927,182.169724 
z"/>
<path fill="#3CABD7" opacity="1.000000" stroke="none" 
	d="
M126.187073,178.276031 
	C127.679245,178.730621 129.283096,179.501556 130.925934,180.632538 
	C129.409531,180.192505 127.854134,179.392426 126.187073,178.276031 
z"/>
<path fill="#3CABD7" opacity="1.000000" stroke="none" 
	d="
M131.102417,181.252258 
	C131.309784,181.134827 131.559998,181.311722 131.872650,181.765244 
	C131.650299,181.920700 131.387024,181.755615 131.102417,181.252258 
z"/>
<path fill="#9381DC" opacity="1.000000" stroke="none" 
	d="
M126.212524,167.748352 
	C125.877197,168.022797 125.689987,168.085876 125.231094,168.269623 
	C123.564285,168.344925 122.169144,168.299545 120.188034,168.315948 
	C119.376625,168.487778 119.251991,168.667770 119.228165,168.917694 
	C118.765526,169.478546 118.240280,170.564240 117.850082,170.517685 
	C114.555069,170.124695 111.284714,169.524872 107.573677,168.990234 
	C106.241989,169.245010 105.343575,169.496750 104.121399,169.898926 
	C103.797638,170.049362 103.441956,169.953552 103.144043,169.575897 
	C100.932892,168.480255 99.019661,167.762299 97.106430,167.044327 
	C106.356323,166.660004 115.606216,166.275696 125.289116,165.889801 
	C126.214096,165.961716 126.706078,166.035233 127.561966,166.171295 
	C127.404144,166.668228 126.882401,167.102615 126.212524,167.748352 
z"/>
<path fill="#5870D6" opacity="1.000000" stroke="none" 
	d="
M96.692383,167.003723 
	C99.019661,167.762299 100.932892,168.480255 102.964417,169.535187 
	C99.352661,170.128098 95.622604,170.384033 92.192383,170.619400 
	C88.838081,170.227921 85.658478,169.856842 82.216736,169.273926 
	C84.406136,168.149139 86.857681,167.236206 89.669022,166.160919 
	C92.111977,166.320084 94.195152,166.641586 96.692383,167.003723 
z"/>
<path fill="#5870D6" opacity="1.000000" stroke="none" 
	d="
M94.018845,184.723801 
	C93.868752,184.775833 93.557991,184.611969 93.080498,184.240845 
	C93.228569,184.191696 93.543373,184.349808 94.018845,184.723801 
z"/>
<path fill="#3CABD7" opacity="1.000000" stroke="none" 
	d="
M129.007477,151.863220 
	C125.908493,148.946503 124.870262,145.425949 127.616592,141.132538 
	C129.039673,141.592484 130.182327,142.296188 131.684937,143.021240 
	C131.562454,145.245529 131.080032,147.448486 130.283173,149.871597 
	C129.662567,150.582520 129.356415,151.073288 129.007477,151.863220 
z"/>
<path fill="#B3B7C8" opacity="1.000000" stroke="none" 
	d="
M95.454865,162.956894 
	C96.431061,155.658997 107.947342,145.398193 115.015862,145.056686 
	C119.228691,144.853149 121.326202,148.492081 119.251938,153.237427 
	C117.955605,156.203064 115.809998,158.797470 113.984207,161.938141 
	C107.922287,162.549622 101.921646,162.781433 95.454865,162.956894 
z"/>
<path fill="#73C3E8" opacity="1.000000" stroke="none" 
	d="
M135.905899,139.051895 
	C135.920593,138.877472 135.935303,138.703033 135.969574,138.007050 
	C135.987183,137.312317 135.985229,137.139099 135.983261,136.965897 
	C136.005249,136.554901 136.027252,136.143906 136.389664,135.354462 
	C138.517288,134.990891 140.304504,135.005798 142.091705,135.020691 
	C142.383286,136.437820 142.674850,137.854965 142.992340,139.639221 
	C142.516098,141.357315 142.167267,142.797791 141.451523,144.024109 
	C141.053421,144.706192 140.043716,145.031326 139.320221,144.954803 
	C138.907867,143.232788 138.484955,142.073288 137.972809,140.613129 
	C137.224350,139.892258 136.565125,139.472076 135.905899,139.051895 
z"/>
<path fill="#3CABD7" opacity="1.000000" stroke="none" 
	d="
M138.062042,140.913788 
	C138.484955,142.073288 138.907867,143.232788 139.190277,144.698822 
	C137.701080,144.558533 136.352402,144.111710 135.000275,143.347931 
	C134.999283,142.264450 135.001724,141.497925 135.302505,140.487762 
	C136.421234,140.467346 137.241638,140.690567 138.062042,140.913788 
z"/>
<path fill="#33C4DD" opacity="1.000000" stroke="none" 
	d="
M142.081299,134.672211 
	C140.304504,135.005798 138.517288,134.990891 136.383179,135.045685 
	C137.141129,133.766571 138.245987,132.417755 139.698517,131.013611 
	C140.721115,132.080078 141.395996,133.201889 142.081299,134.672211 
z"/>
<path fill="#33C4DD" opacity="1.000000" stroke="none" 
	d="
M137.972809,140.613113 
	C137.241638,140.690567 136.421234,140.467346 135.309540,140.105042 
	C135.126846,139.687698 135.297409,139.454834 135.717926,139.159622 
	C136.565125,139.472076 137.224350,139.892258 137.972809,140.613113 
z"/>
<path fill="#33C4DD" opacity="1.000000" stroke="none" 
	d="
M135.842804,137.068451 
	C135.985229,137.139099 135.987183,137.312317 135.969147,137.744476 
	C135.814499,137.827744 135.658585,137.663132 135.558044,137.469711 
	C135.527527,137.411011 135.649963,137.272797 135.842804,137.068451 
z"/>
<path fill="#7799E1" opacity="1.000000" stroke="none" 
	d="
M175.340622,180.809204 
	C175.546829,180.631897 176.076523,180.508530 176.778564,180.525452 
	C176.521957,180.731537 176.093048,180.797348 175.340622,180.809204 
z"/>
<path fill="#7799E1" opacity="1.000000" stroke="none" 
	d="
M179.275116,176.860626 
	C178.628876,177.171692 178.085556,177.246399 177.542236,177.321106 
	C177.597351,176.895325 177.652466,176.469528 177.707596,176.043747 
	C178.264404,176.237259 178.821228,176.430771 179.275116,176.860626 
z"/>
<path fill="#7799E1" opacity="1.000000" stroke="none" 
	d="
M174.056213,174.167114 
	C174.309113,173.699600 174.572647,173.482849 174.836197,173.266098 
	C174.859879,174.002899 174.883560,174.739700 174.907242,175.476501 
	C174.627121,175.123627 174.347000,174.770752 174.056213,174.167114 
z"/>
<path fill="#51B0E1" opacity="1.000000" stroke="none" 
	d="
M121.588928,174.807739 
	C121.064346,174.503799 120.784805,174.169769 120.505264,173.835724 
	C120.777992,173.688629 121.050720,173.541534 121.323456,173.394470 
	C121.493637,173.855530 121.663811,174.316589 121.588928,174.807739 
z"/>
<path fill="#51B0E1" opacity="1.000000" stroke="none" 
	d="
M119.366562,168.849777 
	C119.251991,168.667770 119.376625,168.487778 119.771317,168.366058 
	C119.824524,168.526611 119.679314,168.669098 119.366562,168.849777 
z"/>
<path fill="#9E82DA" opacity="1.000000" stroke="none" 
	d="
M146.220062,182.361923 
	C146.752182,182.119354 147.497437,182.068985 148.614594,182.059784 
	C148.135406,182.251999 147.284302,182.403061 146.220062,182.361923 
z"/>
</svg>